<?xml version="1.0" encoding="iso-8859-1"?>
<!-- Uploaded to: SVG Repo, www.svgrepo.com, Generator: SVG Repo Mixer Tools -->
<svg version="1.1" id="Layer_1" xmlns="http://www.w3.org/2000/svg" xmlns:xlink="http://www.w3.org/1999/xlink" 
	 viewBox="0 0 512 512" xml:space="preserve">
<polygon style="fill:#84BF7E;" points="256,0 63.695,0 63.695,69.595 448.305,69.595 448.305,0 "/>
<rect x="256" style="fill:#628C5F;" width="192.301" height="69.599"/>
<polygon style="fill:#A4D95E;" points="63.695,0 18.905,76.177 195.676,336.775 279.125,317.588 "/>
<polygon style="fill:#84BF7E;" points="448.305,0 234.071,315.827 316.434,336.611 493.095,76.177 "/>
<path style="fill:#F1D849;" d="M256,299.132c-58.689,0-106.435,47.745-106.435,106.434S197.311,512,256,512
	s106.435-47.746,106.435-106.435S314.689,299.132,256,299.132z M329.043,405.565c0,13.352-3.617,25.867-9.899,36.648l-46.448-37.368
	v-70.374C304.949,342.045,329.043,371.034,329.043,405.565z M239.304,476.661c-8.471-1.989-16.378-5.448-23.434-10.108
	l23.434-18.853V476.661z M272.696,447.701l23.434,18.853c-7.056,4.659-14.963,8.117-23.434,10.108L272.696,447.701L272.696,447.701z
	 M239.304,334.471v70.374l-46.448,37.368c-6.282-10.781-9.899-23.296-9.899-36.648C182.957,371.034,207.051,342.045,239.304,334.471
	z"/>
<path style="fill:#E8BA44;" d="M256,299.132V512c58.689,0,106.435-47.746,106.435-106.435S314.689,299.132,256,299.132z
	 M272.696,476.661v-28.96l23.434,18.853C289.074,471.213,281.167,474.672,272.696,476.661z M319.144,442.213l-46.448-37.368v-70.374
	c32.254,7.574,56.348,36.563,56.348,71.095C329.043,418.917,325.426,431.432,319.144,442.213z"/>
</svg>