<?xml version="1.0" encoding="utf-8"?>
<svg viewBox="0 0 2000 1000" width="2000" height="1000" xmlns="http://www.w3.org/2000/svg" xmlns:xlink="http://www.w3.org/1999/xlink" xmlns:bx="https://boxy-svg.com">
  <defs>
    <linearGradient id="gradient-1-0" gradientUnits="userSpaceOnUse" x1="450" y1="100" x2="450" y2="140" gradientTransform="matrix(1, 0, 0, 1, -10, 850)" xlink:href="#gradient-1"/>
    <linearGradient id="gradient-1" bx:pinned="true">
      <title>blueneon</title>
      <stop offset="0" style="stop-color: rgb(17, 34, 255);"/>
      <stop offset="0.5" style="stop-color: rgb(0, 0, 238);"/>
      <stop offset="1" style="stop-color: rgb(17, 34, 255);"/>
    </linearGradient>
    <linearGradient gradientUnits="userSpaceOnUse" x1="50" y1="950" x2="50" y2="990" id="gradient-1-3" gradientTransform="matrix(1, 0, 0, 1, -10, 0)" xlink:href="#gradient-1"/>
    <linearGradient gradientUnits="userSpaceOnUse" x1="850" y1="950" x2="850" y2="990" id="gradient-1-1" gradientTransform="matrix(1, 0, 0, 1, -10, 0)" xlink:href="#gradient-1"/>
    <linearGradient id="gradient-0-0" gradientUnits="userSpaceOnUse" x1="450" y1="102.5" x2="450" y2="132.5" gradientTransform="matrix(1, 0, 0, 1, -10, 851)" xlink:href="#gradient-0"/>
    <linearGradient id="gradient-0" bx:pinned="true">
      <title>whitereflex</title>
      <stop offset="0" style="stop-color: rgba(255, 255, 255, 0);"/>
      <stop offset="0.2" style="stop-color: rgba(255, 255, 255, 0.933);"/>
      <stop offset="0.8" style="stop-color: rgba(255, 255, 255, 0.933);"/>
      <stop offset="1" style="stop-color: rgba(255, 255, 255, 0);"/>
    </linearGradient>
    <radialGradient id="gradient-3-0" gradientUnits="userSpaceOnUse" cx="60" cy="117.5" r="15" gradientTransform="matrix(1, 0, 0, 1, -10, 851)" xlink:href="#gradient-3"/>
    <linearGradient id="gradient-3">
      <title>whitereflex_border</title>
      <stop offset="0.6" style="stop-color: rgba(255, 255, 255, 0.933);"/>
      <stop offset="1" style="stop-color: rgba(255, 255, 255, 0);"/>
    </linearGradient>
    <radialGradient id="gradient-3-2" gradientUnits="userSpaceOnUse" cx="840" cy="117.5" r="15" gradientTransform="matrix(1, 0, 0, 1, -10, 851)" xlink:href="#gradient-3"/>
    <linearGradient id="gradient-2-0" gradientUnits="userSpaceOnUse" x1="1550.307" y1="950" x2="1550.307" y2="990" gradientTransform="matrix(1, 0, 0, 1, 9.693829, 0)" xlink:href="#gradient-2"/>
    <linearGradient id="gradient-2">
      <title>greenneon</title>
      <stop offset="0" style="stop-color: rgb(17, 255, 17);"/>
      <stop offset="0.5" style="stop-color: rgb(0, 238, 0);"/>
      <stop offset="1" style="stop-color: rgb(17, 255, 17);"/>
    </linearGradient>
    <linearGradient id="gradient-2-1" gradientUnits="userSpaceOnUse" x1="1150.307" y1="950" x2="1150.307" y2="990" gradientTransform="matrix(1, 0, 0, 1, 9.693829, 0)" xlink:href="#gradient-2"/>
    <linearGradient gradientUnits="userSpaceOnUse" x1="1950.307" y1="950" x2="1950.307" y2="990" id="gradient-2-2" gradientTransform="matrix(1, 0, 0, 1, 9.693829, 0)" xlink:href="#gradient-2"/>
    <linearGradient id="gradient-0-1" gradientUnits="userSpaceOnUse" x1="450" y1="102.5" x2="450" y2="132.5" gradientTransform="matrix(1, 0, 0, 1, 1110.000366, 850.999817)" xlink:href="#gradient-0"/>
    <radialGradient id="gradient-3-1" gradientUnits="userSpaceOnUse" cx="60" cy="117.5" r="15" gradientTransform="matrix(1, 0, 0, 1, 1110.000366, 850.999817)" xlink:href="#gradient-3"/>
    <radialGradient id="gradient-3-3" gradientUnits="userSpaceOnUse" cx="840" cy="117.5" r="15" gradientTransform="matrix(1, 0, 0, 1, 1110.000366, 850.999817)" xlink:href="#gradient-3"/>
    <linearGradient id="gradient-4-0" gradientUnits="userSpaceOnUse" x1="450" y1="10" x2="450" y2="50" gradientTransform="matrix(1, 0, 0, 1, -10, 0)" xlink:href="#gradient-4"/>
    <linearGradient id="gradient-4">
      <title>redneon</title>
      <stop offset="0" style="stop-color: rgb(255, 17, 17);"/>
      <stop offset="0.5" style="stop-color: rgb(238, 0, 0);"/>
      <stop offset="1" style="stop-color: rgb(255, 17, 17);"/>
    </linearGradient>
    <linearGradient id="gradient-4-2" gradientUnits="userSpaceOnUse" x1="50" y1="10" x2="50" y2="50" gradientTransform="matrix(1, 0, 0, 1, -10, 0)" xlink:href="#gradient-4"/>
    <linearGradient id="gradient-4-1" gradientUnits="userSpaceOnUse" x1="850" y1="10" x2="850" y2="50" gradientTransform="matrix(1, 0, 0, 1, -10, 0)" xlink:href="#gradient-4"/>
    <linearGradient id="gradient-0-2" gradientUnits="userSpaceOnUse" x1="450" y1="102.5" x2="450" y2="132.5" gradientTransform="matrix(1, 0, 0, 1, -10.000061, -86.000488)" xlink:href="#gradient-0"/>
    <radialGradient id="gradient-3-4" gradientUnits="userSpaceOnUse" cx="60" cy="117.5" r="15" gradientTransform="matrix(1, 0, 0, 1, -10.000061, -86.000488)" xlink:href="#gradient-3"/>
    <radialGradient id="gradient-3-5" gradientUnits="userSpaceOnUse" cx="840" cy="117.5" r="15" gradientTransform="matrix(1, 0, 0, 1, -10.000061, -86.000488)" xlink:href="#gradient-3"/>
    <linearGradient id="gradient-5-0" gradientUnits="userSpaceOnUse" x1="1550" y1="10" x2="1550" y2="50" gradientTransform="matrix(1, 0, 0, 1, 10, 0)" xlink:href="#gradient-5"/>
    <linearGradient id="gradient-5">
      <title>orengeneon</title>
      <stop offset="0" style="stop-color: rgb(255, 102, 17);"/>
      <stop offset="0.5" style="stop-color: rgb(238, 85, 0);"/>
      <stop offset="1" style="stop-color: rgb(255, 102, 17);"/>
    </linearGradient>
    <linearGradient id="gradient-5-2" gradientUnits="userSpaceOnUse" x1="1150" y1="10" x2="1150" y2="50" gradientTransform="matrix(1, 0, 0, 1, 10, 0)" xlink:href="#gradient-5"/>
    <linearGradient id="gradient-5-1" gradientUnits="userSpaceOnUse" x1="1950" y1="10" x2="1950" y2="50" gradientTransform="matrix(1, 0, 0, 1, 10, 0)" xlink:href="#gradient-5"/>
    <linearGradient id="gradient-0-3" gradientUnits="userSpaceOnUse" x1="450" y1="102.5" x2="450" y2="132.5" gradientTransform="matrix(1, 0, 0, 1, 1110.000244, -86.000671)" xlink:href="#gradient-0"/>
    <radialGradient id="gradient-3-6" gradientUnits="userSpaceOnUse" cx="60" cy="117.5" r="15" gradientTransform="matrix(1, 0, 0, 1, 1110.000244, -86.000671)" xlink:href="#gradient-3"/>
    <radialGradient id="gradient-3-7" gradientUnits="userSpaceOnUse" cx="840" cy="117.5" r="15" gradientTransform="matrix(1, 0, 0, 1, 1110.000244, -86.000671)" xlink:href="#gradient-3"/>
    <linearGradient id="gradient-7-0" gradientUnits="userSpaceOnUse" x1="1000" y1="950" x2="1000" y2="990" xlink:href="#gradient-7"/>
    <linearGradient id="gradient-7">
      <title>offneon</title>
      <stop offset="0" style="stop-color: rgba(255, 255, 255, 0);"/>
      <stop offset="0.08" style="stop-color: rgba(255, 255, 255, 0.8);"/>
      <stop offset="0.16" style="stop-color: rgba(102, 102, 102, 0.133);"/>
      <stop offset="0.5" style="stop-color: rgba(102, 102, 102, 0.2);"/>
      <stop offset="0.84" style="stop-color: rgba(102, 102, 102, 0.133);"/>
      <stop offset="0.92" style="stop-color: rgba(255, 255, 255, 0.8);"/>
      <stop offset="1" style="stop-color: rgba(255, 255, 255, 0);"/>
    </linearGradient>
    <radialGradient gradientUnits="userSpaceOnUse" cx="890" cy="970" r="20" id="gradient-6-2" xlink:href="#gradient-6"/>
    <linearGradient id="gradient-6">
      <title>offneon_border</title>
      <stop offset="0" style="stop-color: rgba(102, 102, 102, 0.2);"/>
      <stop offset="0.68" style="stop-color: rgba(102, 102, 102, 0.133);"/>
      <stop offset="0.84" style="stop-color: rgba(255, 255, 255, 0.8);"/>
      <stop offset="1" style="stop-color: rgba(255, 255, 255, 0);"/>
    </linearGradient>
    <radialGradient id="gradient-6-1" gradientUnits="userSpaceOnUse" cx="1110" cy="970" r="20" gradientTransform="matrix(1, 0, 0, 1, 0.000192, 0.000341)" xlink:href="#gradient-6"/>
    <linearGradient id="gradient-7-1" gradientUnits="userSpaceOnUse" x1="1000" y1="950" x2="1000" y2="990" gradientTransform="matrix(1, 0, 0, 1, 0.000183, -939.999634)" xlink:href="#gradient-7"/>
    <radialGradient gradientUnits="userSpaceOnUse" cx="890" cy="970" r="20" id="gradient-6-3" gradientTransform="matrix(1, 0, 0, 1, 0.000183, -939.999634)" xlink:href="#gradient-6"/>
    <radialGradient id="gradient-6-4" gradientUnits="userSpaceOnUse" cx="1110" cy="970" r="20" gradientTransform="matrix(1, 0, 0, 1, 0.000366, -939.999329)" xlink:href="#gradient-6"/>
  </defs>
  <rect x="40" y="950" width="800" height="40" style="stroke-opacity: 0; stroke-width: 0px; stroke: rgba(0, 0, 0, 0); fill: url('#gradient-1-0');" transform="matrix(1, 0, 0, 1, 0, -1.1368683772161603e-13)"/>
  <ellipse style="stroke: rgba(0, 0, 0, 0); stroke-opacity: 0; stroke-width: 0px; fill: url('#gradient-1-3');" cx="40" cy="970" rx="20" ry="20" transform="matrix(1, 0, 0, 1, 0, -1.1368683772161603e-13)"/>
  <ellipse style="stroke: rgba(0, 0, 0, 0); stroke-opacity: 0; stroke-width: 0px; fill: url('#gradient-1-1');" cx="840" cy="970" rx="20" ry="20" transform="matrix(1, 0, 0, 1, 0, -1.1368683772161603e-13)"/>
  <rect x="50" y="953.5" width="780" height="30" style="stroke-opacity: 0; stroke-width: 0px; stroke: rgba(0, 0, 0, 0); fill: url('#gradient-0-0');" transform="matrix(1, 0, 0, 1, 0, -1.1368683772161603e-13)"/>
  <path d="M 65 968.5 C 65 976.784 58.284 983.5 50 983.5 C 41.716 983.5 35 976.784 35 968.5 C 35 960.216 41.716 953.5 50 953.5 C 58.284 953.5 65 960.216 65 968.5 Z M 50 953.5 L 50 983.5 C 58.284 983.5 65 976.784 65 968.5 C 65 960.216 58.284 953.5 50 953.5 Z" style="stroke: rgba(0, 0, 0, 0); stroke-opacity: 0; stroke-width: 0px; fill: url('#gradient-3-0');" transform="matrix(1, 0, 0, 1, 0, -1.1368683772161603e-13)"/>
  <path d="M 845 968.5 C 845 976.784 838.284 983.5 830 983.5 C 821.716 983.5 815 976.784 815 968.5 C 815 960.216 821.716 953.5 830 953.5 C 838.284 953.5 845 960.216 845 968.5 Z M 830 983.5 L 830 953.5 C 821.716 953.5 815 960.216 815 968.5 C 815 976.784 821.716 983.5 830 983.5 Z" style="stroke: rgba(0, 0, 0, 0); stroke-opacity: 0; stroke-width: 0px; fill: url('#gradient-3-2');" transform="matrix(1, 0, 0, 1, 0, -1.1368683772161603e-13)"/>
  <rect x="1160" y="950" width="800" height="40" style="stroke-opacity: 0; stroke-width: 0px; stroke: rgba(0, 0, 0, 0); fill: url('#gradient-2-0');" transform="matrix(1, 0, 0, 1, 0, -1.1368683772161603e-13)"/>
  <ellipse style="stroke: rgba(0, 0, 0, 0); stroke-opacity: 0; stroke-width: 0px; fill: url('#gradient-2-1');" cx="1160" cy="970" rx="20" ry="20" transform="matrix(1, 0, 0, 1, 0, -1.1368683772161603e-13)"/>
  <ellipse style="stroke: rgba(0, 0, 0, 0); stroke-opacity: 0; stroke-width: 0px; fill: url('#gradient-2-2');" cx="1960" cy="970" rx="20" ry="20" transform="matrix(1, 0, 0, 1, 0, -1.1368683772161603e-13)"/>
  <rect x="1170" y="953.5" width="780" height="30" style="stroke-opacity: 0; stroke-width: 0px; stroke: rgba(0, 0, 0, 0); fill: url('#gradient-0-1');" transform="matrix(1, 0, 0, 1, 0, -1.1368683772161603e-13)"/>
  <path d="M 1185 968.5 C 1185 976.784 1178.284 983.5 1170 983.5 C 1161.716 983.5 1155 976.784 1155 968.5 C 1155 960.216 1161.716 953.5 1170 953.5 C 1178.284 953.5 1185 960.216 1185 968.5 Z M 1170 953.5 L 1170 983.5 C 1178.284 983.5 1185 976.784 1185 968.5 C 1185 960.216 1178.284 953.5 1170 953.5 Z" style="stroke: rgba(0, 0, 0, 0); stroke-opacity: 0; stroke-width: 0px; fill: url('#gradient-3-1');" transform="matrix(1, 0, 0, 1, 0, -1.1368683772161603e-13)"/>
  <path d="M 1965 968.5 C 1965 976.784 1958.284 983.5 1950 983.5 C 1941.716 983.5 1935 976.784 1935 968.5 C 1935 960.216 1941.716 953.5 1950 953.5 C 1958.284 953.5 1965 960.216 1965 968.5 Z M 1950 983.5 L 1950 953.5 C 1941.716 953.5 1935 960.216 1935 968.5 C 1935 976.784 1941.716 983.5 1950 983.5 Z" style="stroke: rgba(0, 0, 0, 0); stroke-opacity: 0; stroke-width: 0px; fill: url('#gradient-3-3');" transform="matrix(1, 0, 0, 1, 0, -1.1368683772161603e-13)"/>
  <rect x="40" width="800" height="40" style="stroke-opacity: 0; stroke-width: 0px; stroke: rgba(0, 0, 0, 0); fill: url('#gradient-4-0');" y="10" transform="matrix(1, 0, 0, 1, 0, -1.1368683772161603e-13)"/>
  <ellipse style="stroke: rgba(0, 0, 0, 0); stroke-opacity: 0; stroke-width: 0px; fill: url('#gradient-4-2');" cx="40" cy="30" rx="20" ry="20" transform="matrix(1, 0, 0, 1, 0, -1.1368683772161603e-13)"/>
  <ellipse style="stroke: rgba(0, 0, 0, 0); stroke-opacity: 0; stroke-width: 0px; fill: url('#gradient-4-1');" cx="840" cy="30" rx="20" ry="20" transform="matrix(1, 0, 0, 1, 0, -1.1368683772161603e-13)"/>
  <rect x="50" y="16.5" width="780" height="30" style="stroke-opacity: 0; stroke-width: 0px; stroke: rgba(0, 0, 0, 0); fill: url('#gradient-0-2');" transform="matrix(1, 0, 0, 1, 0, -1.1368683772161603e-13)"/>
  <path d="M 65 31.5 C 65 39.784 58.284 46.5 50 46.5 C 41.716 46.5 35 39.784 35 31.5 C 35 23.216 41.716 16.5 50 16.5 C 58.284 16.5 65 23.216 65 31.5 Z M 50 16.5 L 50 46.5 C 58.284 46.5 65 39.784 65 31.5 C 65 23.216 58.284 16.5 50 16.5 Z" style="stroke: rgba(0, 0, 0, 0); stroke-opacity: 0; stroke-width: 0px; fill: url('#gradient-3-4');" transform="matrix(1, 0, 0, 1, 0, -1.1368683772161603e-13)"/>
  <path d="M 845 31.5 C 845 39.784 838.284 46.5 830 46.5 C 821.716 46.5 815 39.784 815 31.5 C 815 23.216 821.716 16.5 830 16.5 C 838.284 16.5 845 23.216 845 31.5 Z M 830 46.5 L 830 16.5 C 821.716 16.5 815 23.216 815 31.5 C 815 39.784 821.716 46.5 830 46.5 Z" style="stroke: rgba(0, 0, 0, 0); stroke-opacity: 0; stroke-width: 0px; fill: url('#gradient-3-5');" transform="matrix(1, 0, 0, 1, 0, -1.1368683772161603e-13)"/>
  <rect x="1160" width="800" height="40" style="stroke-opacity: 0; stroke-width: 0px; stroke: rgba(0, 0, 0, 0); fill: url('#gradient-5-0');" y="10" transform="matrix(1, 0, 0, 1, 0, -1.1368683772161603e-13)"/>
  <ellipse style="stroke: rgba(0, 0, 0, 0); stroke-opacity: 0; stroke-width: 0px; fill: url('#gradient-5-2');" cx="1160" cy="30" rx="20" ry="20" transform="matrix(1, 0, 0, 1, 0, -1.1368683772161603e-13)"/>
  <ellipse style="stroke: rgba(0, 0, 0, 0); stroke-opacity: 0; stroke-width: 0px; fill: url('#gradient-5-1');" cx="1960" cy="30" rx="20" ry="20" transform="matrix(1, 0, 0, 1, 0, -1.1368683772161603e-13)"/>
  <rect x="1170" y="16.5" width="780" height="30" style="stroke-opacity: 0; stroke-width: 0px; stroke: rgba(0, 0, 0, 0); fill: url('#gradient-0-3');" transform="matrix(1, 0, 0, 1, 0, -1.1368683772161603e-13)"/>
  <path d="M 1185 31.5 C 1185 39.784 1178.284 46.5 1170 46.5 C 1161.716 46.5 1155 39.784 1155 31.5 C 1155 23.216 1161.716 16.5 1170 16.5 C 1178.284 16.5 1185 23.216 1185 31.5 Z M 1170 16.5 L 1170 46.5 C 1178.284 46.5 1185 39.784 1185 31.5 C 1185 23.216 1178.284 16.5 1170 16.5 Z" style="stroke: rgba(0, 0, 0, 0); stroke-opacity: 0; stroke-width: 0px; fill: url('#gradient-3-6');" transform="matrix(1, 0, 0, 1, 0, -1.1368683772161603e-13)"/>
  <path d="M 1965 31.5 C 1965 39.784 1958.284 46.5 1950 46.5 C 1941.716 46.5 1935 39.784 1935 31.5 C 1935 23.216 1941.716 16.5 1950 16.5 C 1958.284 16.5 1965 23.216 1965 31.5 Z M 1950 46.5 L 1950 16.5 C 1941.716 16.5 1935 23.216 1935 31.5 C 1935 39.784 1941.716 46.5 1950 46.5 Z" style="stroke: rgba(0, 0, 0, 0); stroke-opacity: 0; stroke-width: 0px; fill: url('#gradient-3-7');" transform="matrix(1, 0, 0, 1, 0, -1.1368683772161603e-13)"/>
  <rect x="890" y="950" width="220" height="40" style="stroke-opacity: 0; stroke-width: 0px; stroke: rgba(0, 0, 0, 0); fill: url('#gradient-7-0');" transform="matrix(1, 0, 0, 1, 0, -1.1368683772161603e-13)"/>
  <path d="M 910 970 C 910 981.046 901.046 990 890 990 C 901.046 990 910 981.046 910 970 C 910 958.954 901.046 950 890 950 C 901.046 950 910 958.954 910 970 Z M 870 970 C 870 958.954 878.954 950 890 950 L 890 990 C 878.954 990 870 981.046 870 970 Z" style="stroke: rgba(0, 0, 0, 0); stroke-opacity: 0; stroke-width: 0px; fill: url('#gradient-6-2');" transform="matrix(1, 0, 0, 1, 0, -1.1368683772161603e-13)"/>
  <path d="M 1130 970 C 1130 958.954 1121.046 950 1110 950 L 1110 990 C 1121.046 990 1130 981.046 1130 970 Z" style="stroke: rgba(0, 0, 0, 0); stroke-opacity: 0; stroke-width: 0px; fill: url('#gradient-6-1');" transform="matrix(1, 0, 0, 1, 0, -1.1368683772161603e-13)"/>
  <rect x="890" y="10" width="220" height="40" style="stroke-opacity: 0; stroke-width: 0px; stroke: rgba(0, 0, 0, 0); fill: url('#gradient-7-1');" transform="matrix(1, 0, 0, 1, 0, -1.1368683772161603e-13)"/>
  <path d="M 910 30 C 910 41.046 901.046 50 890 50 C 901.046 50 910 41.046 910 30 C 910 18.954 901.046 10 890 10 C 901.046 10 910 18.954 910 30 Z M 870 30 C 870 18.954 878.954 10 890 10 L 890 50 C 878.954 50 870 41.046 870 30 Z" style="stroke: rgba(0, 0, 0, 0); stroke-opacity: 0; stroke-width: 0px; fill: url('#gradient-6-3');" transform="matrix(1, 0, 0, 1, 0, -1.1368683772161603e-13)"/>
  <path d="M 1130 30 C 1130 18.954 1121.046 10 1110 10 L 1110 50 C 1121.046 50 1130 41.046 1130 30 Z" style="stroke: rgba(0, 0, 0, 0); stroke-opacity: 0; stroke-width: 0px; fill: url('#gradient-6-4');" transform="matrix(1, 0, 0, 1, 0, -1.1368683772161603e-13)"/>
</svg>
