<?xml version="1.0" encoding="utf-8"?>
<svg viewBox="0 0 500 500" width="500" height="500" xmlns="http://www.w3.org/2000/svg" xmlns:xlink="http://www.w3.org/1999/xlink">
  <defs>
    <radialGradient id="gradient-0-0" gradientUnits="userSpaceOnUse" cx="250" cy="250" r="250" gradientTransform="matrix(1, 0, 0, 1, 0.000427, 0.000055)" xlink:href="#gradient-0"/>
    <linearGradient id="gradient-0">
      <title>green-aura</title>
      <stop offset="0" style="stop-color: rgb(0, 255, 0);"/>
      <stop offset="0.45" style="stop-color: rgba(0, 255, 0, 0.6);">
        <animate attributeName="offset" values="0.45;0.25;0.45" begin="0s" dur="3s" repeatCount="indefinite" fill="freeze" keyTimes="0; 0.49964; 1"/>
      </stop>
      <stop offset="0.6" style="stop-color: rgb(0, 255, 0);">
        <animate attributeName="offset" values="0.5;0.7;0.5" begin="0s" dur="3s" fill="freeze" repeatCount="indefinite" keyTimes="0; 0.50128; 1"/>
      </stop>
      <stop offset="1" style="stop-color: rgba(0, 255, 0, 0);">
        <animate attributeName="offset" values="1;0.9;1" begin="0s" dur="3s" fill="freeze" repeatCount="indefinite" keyTimes="0; 0.50123; 1"/>
      </stop>
    </linearGradient>
  </defs>
  <ellipse style="stroke: rgba(0, 0, 0, 0); stroke-opacity: 0; stroke-width: 0px; fill: url('#gradient-0-0');" cx="250" cy="250" rx="250" ry="250" transform="matrix(0.9999999999999999, 0, 0, 0.9999999999999999, -5.684341886080802e-14, 0)"/>
  <ellipse style="stroke-width: 10px; fill-opacity: 0; fill: rgba(0, 0, 0, 0); stroke: rgb(204, 255, 204);" cx="250" cy="250" rx="150" ry="150" transform="matrix(0.9999999999999999, 0, 0, 0.9999999999999999, -5.684341886080802e-14, 0)"/>
  <ellipse style="stroke-width: 10px; fill-opacity: 0; fill: rgba(0, 0, 0, 0); stroke: rgb(204, 255, 204); stroke-linecap: round; stroke-dasharray: 30; transform-origin: 320px 250px;" cx="250" cy="250" rx="60" ry="60"/>
  <line style="stroke-width: 10px; stroke: rgb(204, 255, 204); stroke-linecap: round;" x1="160" y1="340" x2="190" y2="310" transform="matrix(0.9999999999999999, 0, 0, 0.9999999999999999, -5.684341886080802e-14, 0)"/>
  <line style="stroke-width: 10px; stroke: rgb(204, 255, 204); stroke-linecap: round;" x1="160" y1="160" x2="190" y2="190" transform="matrix(0.9999999999999999, 0, 0, 0.9999999999999999, -5.684341886080802e-14, 0)"/>
  <line style="stroke-width: 10px; stroke: rgb(204, 255, 204); stroke-linecap: round;" x1="310" y1="190" x2="340" y2="160" transform="matrix(0.9999999999999999, 0, 0, 0.9999999999999999, -5.684341886080802e-14, 0)"/>
  <line style="stroke-width: 10px; stroke: rgb(204, 255, 204); stroke-linecap: round;" x1="310" y1="310" x2="340" y2="340" transform="matrix(0.9999999999999999, 0, 0, 0.9999999999999999, -5.684341886080802e-14, 0)"/>
  <line style="stroke-width: 10px; stroke: rgb(204, 255, 204); stroke-linecap: round;" x1="250" y1="170" x2="250" y2="150" transform="matrix(0.9999999999999999, 0, 0, 0.9999999999999999, -5.684341886080802e-14, 0)"/>
  <line style="stroke-width: 10px; stroke: rgb(204, 255, 204); stroke-linecap: round;" x1="250" y1="330" x2="250" y2="350" transform="matrix(0.9999999999999999, 0, 0, 0.9999999999999999, -5.684341886080802e-14, 0)"/>
  <line style="stroke-width: 10px; stroke: rgb(204, 255, 204); stroke-linecap: round;" x1="330" y1="250" x2="350" y2="250" transform="matrix(0.9999999999999999, 0, 0, 0.9999999999999999, -5.684341886080802e-14, 0)"/>
  <line style="stroke-width: 10px; stroke: rgb(204, 255, 204); stroke-linecap: round;" x1="150" y1="250" x2="160" y2="250" transform="matrix(0.9999999999999999, 0, 0, 0.9999999999999999, -5.684341886080802e-14, 0)"/>
</svg>